<?xml version="1.0" encoding="UTF-8" standalone="no"?>
<svg
   version="1.1"
   id="Layer_1"
   x="0px"
   y="0px"
   width="929.41089"
   viewBox="0 0 929.41089 227.30141"
   enable-background="new 0 0 1024 704"
   xml:space="preserve"
   sodipodi:docname="mmad.svg"
   inkscape:version="1.4.2 (ebf0e940, 2025-05-08)"
   inkscape:export-filename="mmad.svg"
   inkscape:export-xdpi="96"
   inkscape:export-ydpi="96"
   height="227.30141"
   xmlns:inkscape="http://www.inkscape.org/namespaces/inkscape"
   xmlns:sodipodi="http://sodipodi.sourceforge.net/DTD/sodipodi-0.dtd"
   xmlns="http://www.w3.org/2000/svg"
   xmlns:svg="http://www.w3.org/2000/svg"><defs
   id="defs12" /><sodipodi:namedview
   id="namedview12"
   pagecolor="#505050"
   bordercolor="#eeeeee"
   borderopacity="1"
   inkscape:showpageshadow="0"
   inkscape:pageopacity="0"
   inkscape:pagecheckerboard="0"
   inkscape:deskcolor="#505050"
   inkscape:zoom="0.2507709"
   inkscape:cx="462.57361"
   inkscape:cy="-191.40977"
   inkscape:window-width="888"
   inkscape:window-height="576"
   inkscape:window-x="307"
   inkscape:window-y="38"
   inkscape:window-maximized="0"
   inkscape:current-layer="Layer_1" />
<path
   fill="#7ea5dc"
   opacity="1"
   stroke="none"
   d="m 60.649772,223.24958 c -3.783812,1.25165 -7.112098,2.43839 -10.508654,3.37838 -8.798485,2.43501 -14.20018,-1.86092 -13.975034,-10.82131 0.156831,-6.24173 0.377252,-12.46911 -0.905581,-18.69555 -1.269575,-6.16207 2.415835,-11.0915 9.511329,-10.89082 0.777187,0.022 1.562082,-0.11254 2.338904,-0.21011 13.372825,-1.68059 12.511542,-1.68876 12.618629,-15.0784 0.143184,-17.90243 -1.780487,-35.55462 -3.759499,-53.25181 -0.08709,-0.77841 -0.01473,-1.57462 -0.101349,-2.35309 -0.993613,-8.92669 -2.286333,-9.69966 -10.777898,-6.22101 -3.778084,1.54774 -7.609919,2.85439 -11.092349,5.2248 -5.188286,3.53156 -13.948931,0.75503 -17.759258,-5.721 C 11.082887,99.846351 6.4932161,90.751721 1.4934731,81.893561 c -2.766193,-4.90095 -1.65192902,-8.0361 3.028308,-11.21667 17.9209199,-12.17844 37.2566249,-21.5149 57.3934879,-29.25827 6.572598,-2.52742 13.410768,-4.39534 20.569198,-4.63007 9.20066,-0.30172 15.87641,5.75189 16.96978,15.01177 0.53773,4.5539 0.23168,9.42431 3.967613,14.46049 5.20842,-5.24729 11.18566,-9.07517 17.56773,-12.27635 13.01133,-6.5264 26.54216,-8.33082 40.40027,-3.6116 5.86853,1.99846 10.03183,6.72166 13.09351,12.18807 1.03472,1.84735 2.02413,3.7201 2.92207,5.37465 2.40985,0.22766 3.35919,-1.22574 4.07317,-2.50948 7.68325,-13.81421 19.82533,-21.94184 33.7977,-28.65022 14.94809,-7.17685 27.29488,-2.32655 38.46677,6.70549 6.71732,5.43066 9.01743,14.49744 11.33121,22.74388 5.50349,19.61465 8.69688,39.717399 12.36865,59.735909 1.77047,9.65277 2.97753,19.29036 3.96827,28.99944 0.40538,3.97267 1.93637,4.56588 5.87306,3.58573 6.83718,-1.70232 13.93014,-1.73573 20.67867,0.88798 5.69443,2.21394 6.06282,7.95228 5.92036,12.41085 -0.32436,10.15136 -1.84726,20.27694 -3.14695,30.37905 -0.5906,4.59055 -4.45419,6.53854 -8.30352,7.23322 -10.34139,1.86628 -20.52205,4.70458 -31.31134,3.80089 -9.11591,-0.76359 -17.80613,2.2074 -26.16304,5.61606 -5.12142,2.08894 -10.39669,3.54749 -15.73317,4.72556 -6.51976,1.43924 -8.88813,-0.46728 -10.04822,-6.92886 -1.51624,-8.44542 -2.02556,-17.0844 -5.18838,-25.21869 -1.30487,-3.35587 0.84383,-6.09377 3.49368,-7.30838 10.9241,-5.00716 10.89825,-13.55245 9.22483,-23.67675 -1.97517,-11.94993 -0.84413,-24.28564 -3.43451,-36.22115 -1.82244,-8.39697 -3.6642,-16.78985 -7.62584,-24.564979 -1.90674,-3.74211 -4.55904,-5.78289 -8.75654,-5.70175 -4.10288,0.0792 -5.67311,3.15907 -6.98166,6.258259 -7.15568,16.94795 -7.28044,34.61033 -5.25106,52.50147 0.41441,3.65326 2.72852,4.77811 5.80429,5.60538 9.25753,2.49015 10.3759,4.91415 11.02656,14.51481 0.69015,10.18345 -0.14792,17.20085 -12.66288,19.99755 -12.45526,2.7834 -24.10549,9.08612 -36.20011,13.60086 -6.24949,2.33287 -14.07353,-1.67783 -17.3255,-7.44713 -4.73537,-8.40093 -4.99687,-17.97296 -7.84429,-26.84945 -1.12301,-3.50084 2.01255,-4.00563 4.28285,-3.86263 4.58426,0.28871 5.23064,-1.92041 4.81766,-5.77985 -1.64168,-15.34266 -2.61696,-30.76398 -5.64037,-45.93693 -0.0381,-0.19104 -0.0151,-0.39355 -0.0451,-0.58693 -1.48675,-9.57263 -5.62454,-15.30364 -11.41497,-14.77719 -10.38214,0.94394 -19.07025,4.99376 -20.7844,15.49287 -2.97012,18.1918 -0.85853,36.31027 1.01289,54.4126 0.44376,4.29262 3.69012,3.66214 6.75756,3.21881 6.55591,-0.94751 12.40027,-0.07 16.66944,5.92475 1.93475,2.71674 1.2578,5.65907 1.83787,8.47001 1.26913,6.15049 2.08789,12.38419 1.9131,18.6871 -0.21082,7.60253 -4.02548,11.5139 -11.45704,10.98666 -7.18053,-0.50936 -14.43515,-1.18264 -21.43662,-2.76191 -15.443513,-3.48359 -29.503573,-0.28412 -43.318673,7.60109 z"
   id="path1"
   inkscape:export-filename="path1.svg"
   inkscape:export-xdpi="96"
   inkscape:export-ydpi="96"
   style="stroke-width:1" />
<path
   fill="#7ea5dc"
   opacity="1"
   stroke="none"
   d="m 583.27195,152.18606 c -0.86857,7.13255 3.32965,13.11937 4.50409,19.80111 0.67663,3.84966 1.9162,7.59675 2.77178,11.41928 1.01221,4.52234 -0.65239,7.34507 -5.14637,9.08932 -14.58774,5.66189 -29.76461,8.46499 -45.27458,8.20777 -8.11528,-0.1345 -15.51748,0.67685 -22.51428,4.80112 -1.84805,1.08928 -3.87638,1.92171 -5.90082,2.65385 -6.79529,2.45764 -10.2565,0.22938 -12.77268,-6.56975 -2.91262,-7.87021 -4.80766,-15.88169 -6.09136,-24.13333 -0.36262,-2.33098 -0.85127,-4.48514 1.32671,-5.74417 4.02876,-2.32889 6.17106,-6.58335 9.88754,-9.1551 1.88034,-1.3011 2.86798,-3.01464 1.66765,-4.98935 -3.63355,-5.97735 -2.4261,-12.762 -3.59089,-19.14373 -2.48263,-13.60227 -5.31933,-27.13989 -8.0139,-40.703459 -0.11467,-0.57721 -0.3291,-1.14264 -0.37769,-1.72357 -0.35489,-4.24165 -1.11747,-9.57142 -5.61462,-9.86538 -4.9481,-0.32346 -9.99993,2.72131 -11.95098,8.02151 -3.6262,9.850889 -4.49909,20.119459 -3.27383,30.540289 0.54784,4.66009 1.42173,9.28614 1.84937,13.95499 0.5774,6.30409 0.70874,12.59213 9.45584,13.16684 2.01699,0.13249 2.59051,2.57707 3.03675,4.60619 1.30201,5.91978 1.36308,12.03517 3.24985,17.8883 1.08946,3.37961 -1.60442,5.28699 -4.2358,6.92083 -4.48143,2.78261 -9.69938,3.51851 -14.60885,4.16967 -9.45159,1.25392 -16.80529,7.27278 -25.59693,9.91822 -9.04479,2.72161 -12.95544,1.15638 -15.84813,-7.95214 -2.30325,-7.25227 -3.23237,-14.89613 -6.33577,-21.94738 -1.54847,-3.51824 1.30509,-5.14777 3.79829,-6.13268 3.15379,-1.2459 3.65132,-3.48934 2.92168,-6.10823 -4.93055,-17.69769 -7.69693,-35.96926 -14.14359,-53.266639 -0.84763,-2.27436 -2.3109,-4.0527 -3.69814,-5.95653 -1.7235,-2.36528 -3.33929,-2.18768 -6.0104,-1.23266 -8.01569,2.86582 -11.63535,8.386719 -12.26937,16.672929 -0.6304,8.23916 -1.55006,16.48049 0.49182,24.58433 2.27225,9.01803 1.77573,18.29494 2.91676,27.41781 0.66586,5.32372 3.40063,6.95842 7.45754,6.66855 7.53092,-0.53802 9.98712,3.807 11.24856,9.95943 0.6685,3.26043 1.54443,6.47841 2.20527,9.7402 1.61184,7.95609 0.21385,10.46745 -7.62518,13.02385 -7.4443,2.42756 -15.23278,4.63691 -22.91004,4.29582 -12.0222,-0.53414 -23.19534,3.64639 -34.88977,4.47931 -7.03135,0.50077 -13.88403,1.52611 -20.65354,3.82327 -5.83186,1.97895 -8.05433,-0.45207 -9.14875,-6.60508 -1.23182,-6.92558 -2.91545,-13.76916 -3.57314,-20.79781 -0.0519,-0.55364 -0.26605,-1.30464 -0.6681,-1.58134 -7.20355,-4.95729 -1.4354,-7.96596 2.02146,-10.29275 5.66917,-3.81592 11.73974,-7.14115 17.94426,-10.01981 4.34027,-2.01373 5.53716,-4.52511 4.82897,-9.16941 -2.35422,-15.43887 -4.29998,-30.93992 -6.43273,-46.41292 -0.24105,-1.74872 -0.71509,-3.45042 -2.86597,-4.9955 -5.76769,4.07526 -12.97519,5.23548 -19.70376,7.72865 -9.3121,3.45064 -13.69629,3.56145 -18.16585,-6.1193 -0.7668,-1.66078 -1.70913,-3.03414 -3.37393,-3.90476 -3.58666,-1.875619 -5.36918,-5.023769 -6.11242,-8.884129 -0.18457,-0.95863 -0.18457,-2.18784 -0.77806,-2.79736 -8.36817,-8.59333 -3.77947,-16.83635 0.27455,-25.34276 1.62291,-3.40533 3.99275,-5.82603 7.01011,-7.52388 9.86191,-5.54925 20.42083,-10.04327 29.66682,-16.45086 8.86608,-6.14423 18.88054,-8.42849 28.62157,-11.82309 4.42744,-1.54289 9.04234,-2.55768 13.59022,-3.74299 8.3522,-2.17686 13.71687,0.75018 16.26806,8.86296 1.40627,4.47188 3.21417,8.81334 3.95618,13.50304 0.25914,1.63795 0.87019,3.47657 3.15434,4.3319 8.07894,-4.23466 15.92663,-9.32132 24.33928,-13.47186 17.28264,-8.52673 33.68659,-3.9811 42.93142,13.17152 2.36542,4.3888 4.50708,5.23204 8.49519,1.80435 11.32449,-9.73329 23.90378,-16.85617 39.01311,-19.23616 12.69913,-2.00027 22.39017,2.54065 30.97095,11.46064 15.96088,16.59187 18.67901,37.5561 20.48962,59.029079 1.00231,11.88684 1.24986,23.84836 3.31242,35.64813 1.26169,7.21818 2.83073,8.42517 10.19601,7.13392 5.46009,-0.95721 10.64645,-1.00178 14.06159,5.05464 0.25861,0.28771 0.23459,0.24225 0.23459,0.24225 z"
   id="path2"
   style="stroke-width:1" />
<path
   fill="#7ea5dc"
   opacity="1"
   stroke="none"
   d="m 762.08578,134.64391 c 0.61146,-15.72169 6.7367,-28.88364 14.8883,-41.298359 2.75534,-4.19639 4.72818,-8.72599 8.73127,-12.31759 5.08911,-4.56584 11.08503,-7.62541 16.96261,-10.02805 11.4846,-4.69448 23.37867,-9.00816 36.3293,-7.62142 6.31362,0.67609 7.14346,-0.43153 6.1466,-6.9231 -0.23772,-1.54821 -0.49054,-3.10254 -0.58318,-4.66312 -0.28585,-4.81907 -1.53948,-7.67487 -7.62221,-7.55729 -8.49901,0.16431 -12.58804,-5.59298 -11.51697,-14.22199 0.16854,-1.35779 0.0704,-2.74639 0.16207,-4.11633 0.77221,-11.52918 2.9591,-14.12817 14.12376,-16.9281696 15.76862,-3.95461 31.8689,-6.16246 47.89316,-8.62189995 15.20348,-2.33338005 22.62724,7.35502995 17.6209,21.83419955 -1.01699,2.94131 -1.7108,6.02875 -2.2143,9.10435 -0.5875,3.58931 -0.72662,7.01449 -5.85083,7.09372 -3.15512,0.0488 -2.59991,3.13346 -2.39657,5.08188 1.16257,11.13973 0.58398,22.26606 -0.34447,33.35174 -1.50616,17.98461 -0.0167,35.943799 0.27951,53.896649 0.19183,11.6261 0.22198,23.35267 2.27862,34.93048 0.77509,4.36321 2.6373,6.09776 7.0047,5.71903 3.47548,-0.30142 6.99211,-0.0955 10.48788,-0.20091 10.15047,-0.30615 16.08669,6.58695 14.76113,16.82356 -0.75165,5.80502 -1.14611,11.66728 -1.43503,17.51683 -0.15235,3.08319 -1.40209,5.09897 -4.44271,5.05279 -7.84382,-0.11904 -14.87634,3.14599 -22.28292,4.84982 -9.28884,2.1369 -18.61559,4.67136 -28.27854,3.19266 -7.30968,-1.11862 -10.02956,-4.20642 -11.08144,-11.48574 -0.61174,-4.23296 -0.65591,-8.62776 -3.8298,-12.95997 -2.23876,1.92558 -4.47945,3.65551 -6.49394,5.6177 -12.23322,11.91537 -27.07304,14.54247 -43.32458,12.37514 -3.08967,-0.41201 -6.25673,-0.31173 -9.32028,-0.84055 -11.71469,-2.02196 -17.73067,-11.26902 -22.5579,-20.31569 -9.21167,-17.26336 -13.85936,-36.06751 -14.09414,-56.34037 m 73.23482,37.67467 c 5.12033,-1.45654 10.70482,-1.51736 12.40095,-8.6881 3.68594,-15.58268 2.94817,-31.06022 0.24217,-46.579 -0.82162,-4.71264 -10.6126,-8.48746 -14.25582,-5.58715 -7.00292,5.57492 -12.50209,11.94166 -14.56757,21.28623 -2.08375,9.4269 -0.5883,18.46911 1.75554,27.18966 1.65513,6.15814 5.57765,12.18325 14.42473,12.37836 z"
   id="path3"
   style="stroke-width:1" />

<path
   fill="#7ea5dc"
   opacity="1"
   stroke="none"
   d="m 730.24619,209.58606 c -4.55073,4.229 -9.43349,6.96687 -14.98575,8.68932 -6.55228,2.03254 -11.91782,-0.24476 -16.97169,-4.09673 -2.28199,-1.73921 -2.49461,-3.84569 -1.03253,-6.19975 1.24241,-2.00025 2.53316,-3.97049 3.78888,-5.96261 1.07043,-1.69815 1.42777,-3.45852 -0.73395,-4.4535 -5.57629,-2.56666 -10.10365,-6.50969 -14.20916,-11.22643 -5.36007,4.18685 -9.40529,8.89332 -15.08566,11.92033 -9.25439,4.93159 -19.02473,5.83421 -28.57201,3.66171 -8.43865,-1.92027 -17.11821,-3.78133 -25.08466,-7.62027 -8.29134,-3.99545 -13.24316,-11.38353 -16.84861,-19.05048 -6.08705,-12.94386 -6.72563,-26.75776 -1.32016,-40.26944 3.53885,-8.84583 8.63738,-16.40215 18.41829,-19.92004 4.29576,-1.54501 7.25271,-5.65853 11.69542,-7.65515 11.89047,-5.34363 24.04789,-7.691509 36.98204,-5.62764 0.94362,0.15058 1.93205,0.0198 3.20662,0.0198 1.56825,-7.329529 -1.30693,-13.673109 -3.50714,-20.030859 -5.17824,-14.96302 -6.36864,-16.03741 -21.02878,-10.52482 -10.29353,3.8707 -19.21793,10.51155 -23.37809,21.62964 -0.39913,1.06666 -0.98787,2.24264 -0.85854,3.29013 0.29268,2.37113 2.55222,5.241249 -0.93456,6.643299 -3.84958,1.54796 -8.51727,2.43782 -11.75072,-0.57244 -7.92272,-7.375879 -17.77879,-12.681329 -23.3299,-22.693769 -2.65415,-4.78724 -4.42148,-10.38848 -9.61296,-13.66186 -1.60385,-1.01123 -0.32216,-3.29174 0.74022,-4.75443 4.21699,-5.80667 9.64057,-10.35036 15.89585,-13.6698 5.14659,-2.73118 9.89203,-1.17994 13.68624,4.10292 6.47575,-6.88732 13.53806,-11.76846 21.28125,-16.06568 10.17974,-5.64945 21.15904,-7.71015 32.18466,-10.11559 8.98316,-1.9599 17.81159,-2.18445 26.59054,1.25665 16.00217,6.27237 24.86808,18.21543 28.42326,34.67114 4.98253,23.06237 4.61317,46.652579 7.03326,69.966649 0.71389,6.87715 2.42419,13.48289 4.4581,20.05275 1.6844,5.44104 6.10495,8.54728 10.05192,11.9954 2.39844,2.09526 4.33454,-0.20845 6.1961,-1.52725 7.49669,-5.31076 17.07541,-2.02175 19.99338,6.83776 0.52255,1.58659 0.82681,3.07254 -0.38338,4.41379 -6.30931,6.99247 -8.9838,16.57831 -16.11294,22.92193 -4.92441,4.3817 -8.32796,10.41466 -14.88484,13.62538 m -50.98153,-71.35591 c 2.10412,-3.36889 3.09197,-6.88656 0.69123,-10.47152 -2.37909,-3.55255 -6.3595,-3.45229 -9.62237,-2.61599 -6.01505,1.54174 -11.95169,3.65829 -17.60271,6.23386 -2.66083,1.2127 -6.76525,2.72985 -6.80956,5.95419 -0.12149,8.8421 -5.34497,18.49289 3.89612,26.35282 4.63424,-1.43112 9.764,-3.15279 14.89231,-5.06042 10.43553,-3.88188 14.04862,-5.69097 14.55498,-20.39294 z"
   id="path5"
   style="stroke-width:1" />







</svg>
